<?xml version="1.0" encoding="UTF-8" standalone="no"?>
<!-- Created with Inkscape (http://www.inkscape.org/) -->

<svg
   width="168.31979mm"
   height="219.59737mm"
   viewBox="0 0 168.31979 219.59737"
   version="1.1"
   id="svg1"
   inkscape:export-filename="holo-rays.svg"
   inkscape:export-xdpi="96"
   inkscape:export-ydpi="96"
   xmlns:inkscape="http://www.inkscape.org/namespaces/inkscape"
   xmlns:sodipodi="http://sodipodi.sourceforge.net/DTD/sodipodi-0.dtd"
   xmlns="http://www.w3.org/2000/svg"
   xmlns:svg="http://www.w3.org/2000/svg">
  <sodipodi:namedview
     id="namedview1"
     pagecolor="#505050"
     bordercolor="#ffffff"
     borderopacity="1"
     inkscape:showpageshadow="0"
     inkscape:pageopacity="0"
     inkscape:pagecheckerboard="1"
     inkscape:deskcolor="#505050"
     inkscape:document-units="mm" />
  <defs>
    <linearGradient id="animatedGradient" x1="0%" y1="100%" x2="0%" y2="0%">
      <stop offset="0%" stop-color="rgb(182, 244, 146)" />
      <stop offset="50%" stop-color="rgb(51, 139, 147)" />
      <stop offset="100%" stop-color="rgb(182, 244, 146)" />
    </linearGradient>
  </defs>
  <g
     inkscape:label="Layer 1"
     inkscape:groupmode="layer"
     id="layer1"
     transform="translate(-20.840106,-19.82975)">
    <g
       id="g26"
       inkscape:label="rays"
       style="stroke:url(#animatedGradient);stroke-width:1.5;stroke-dasharray:none;stroke-opacity:0.345098"
       transform="translate(-10.953645,25.279456)">
      <path
         id="path27"
         style="fill:none;stroke:url(#animatedGradient);stroke-width:1.5;stroke-linecap:round;stroke-linejoin:round;stroke-dasharray:none;stroke-opacity:1"
         d="m 134.09698,191.58905 -35.158864,-0.0614 M 61.647916,94.58854 C 37.967708,63.235416 37.967708,63.235416 37.967708,63.235416 M 186.39896,134.27604 c -23.54792,25.79687 -23.54792,25.79687 -23.54792,25.79687 m 36.5125,-19.31458 c -19.71146,20.37292 -19.71146,20.37292 -19.71146,20.37292 M 121.04687,144.19791 C 132.29166,75.406249 132.29166,75.406249 132.29166,75.406249 M 49.477083,115.62292 c 35.586458,47.36041 35.983333,47.22812 35.983333,47.22812 M 78.845832,83.608332 C 90.884374,113.37396 90.884374,113.37396 90.884374,113.37396 M 179.12291,54.768749 C 152.00312,124.75104 152.00312,124.75104 152.00312,124.75104 M 98.954165,191.02916 C 73.024999,170.78854 73.024999,170.78854 73.024999,170.78854 m 32.676041,20.76979 c -11.1125,-20.6375 -11.1125,-20.6375 -11.1125,-20.6375 m 14.15521,20.6375 c -3.04271,-20.37292 -3.30729,-20.37292 -3.30729,-20.37292 m 25.79687,20.37292 c 22.225,-20.6375 22.225,-20.6375 22.225,-20.6375 m -33.07291,20.50521 c 5.02708,-20.37292 5.02708,-20.37292 5.02708,-20.37292 m -21.16667,20.50521 C 32.54375,133.48229 32.54375,133.48229 32.54375,133.48229 m 81.35937,57.81146 c -3.93743,-45.36753 -0.20789,-78.21207 -1.85208,-127.000001 M 128.19062,191.55833 C 199.09896,78.316666 199.09896,78.316666 199.09896,78.316666 M 134.04903,191.67234 c 65.29394,-21.04748 65.29394,-21.04748 65.29394,-21.04748 M 99.110223,191.5788 32.834061,170.62486" />
    </g>
  </g>
</svg>
